# xmcd
#
# Track frame offsets: 
#        183
#        12145
#        32425
#        45145
#        55778
#        68305
#        81205
#        96980
#        109613
#        123648
#        137838
#        150625
#        163103
#        173103
#        194568
#        216923
#        229048
#        240075
#        251805
#        263535
#
# Disc length: 3688 seconds
#
# Revision: 1
# Processed by: cddbd v1.4PL0 Copyright (c) Steve Scherf et al.
# Submitted via: ExactAudioCopy v0.95a3
#
DISCID=fb0e6614
DTITLE=Various Artist - Blues Brother Soul Sister Volume 2
DYEAR=1900
DGENRE=
TTITLE0=Martha Reeves And The Vandellas - Dancing In The Street
TTITLE1=John Lee Hooker and Bonnie Raitt - I'm In The Mood
TTITLE2=James Brown - It's A Man's Man's Man's World
TTITLE3=Aretha Franklin - Soulville
TTITLE4=Albert King - Born Under A Bad Sign
TTITLE5=Al Green - Tired Of Being Alone
TTITLE6=Ike And Tina Turner - The Night Time Is The Right Time
TTITLE7=JR Walker and The All Stars - (I'm A) Roadrunner
TTITLE8=Etta James - I Just Want To Make Love To You
TTITLE9=Aaron Neville - Tell It Like It Is
TTITLE10=Tommy Tucker - Hi Heeled Sneakers
TTITLE11=Aretha Franklin - Today I Sing The Blues
TTITLE12=John Lee Hooker - Dimples
TTITLE13=The Staple Singers - I'll Take You There
TTITLE14=BB King - The Thrill Is Gone
TTITLE15=William Bell and Judy Clay - Private Number
TTITLE16=Howlin' Wolf - The Red Rooster
TTITLE17=Maxine Brown - Oh No Not My Baby
TTITLE18=Nina Simone - I Put A Spell On You
TTITLE19=Percy Sledge - When A Man Loves A Woman
EXTD=
EXTT0=
EXTT1=
EXTT2=
EXTT3=
EXTT4=
EXTT5=
EXTT6=
EXTT7=
EXTT8=
EXTT9=
EXTT10=
EXTT11=
EXTT12=
EXTT13=
EXTT14=
EXTT15=
EXTT16=
EXTT17=
EXTT18=
EXTT19=
PLAYORDER=
